HIERARCHY
ROOT hip
{
	OFFSET 0.000000 0.000000 0.000000
	CHANNELS 6 Xposition Yposition Zposition Xrotation Zrotation Yrotation 
	JOINT abdomen
	{
		OFFSET 0.000000 3.422050 0.000000
		CHANNELS 3 Xrotation Zrotation Yrotation 
		JOINT chest
		{
			OFFSET 0.000000 8.486693 -0.684411
			CHANNELS 3 Xrotation Zrotation Yrotation 
			JOINT neck
			{
				OFFSET 0.000000 10.266162 -0.273764
				CHANNELS 3 Xrotation Zrotation Yrotation 
				JOINT head
				{
					OFFSET 0.000000 3.148285 0.000000
					CHANNELS 3 Xrotation Zrotation Yrotation 
					End Site
					{
						OFFSET 0.000000 3.148289 0.000000
					}
				}
			}
			JOINT lCollar
			{
				OFFSET 3.422053 6.707223 -0.821293
				CHANNELS 3 Yrotation Zrotation Xrotation 
				JOINT lShldr
				{
					OFFSET 3.285171 0.000000 0.000000
					CHANNELS 3 Zrotation Yrotation Xrotation 
					JOINT lForeArm
					{
						OFFSET 10.129278 0.000000 0.000000
						CHANNELS 3 Yrotation Zrotation Xrotation 
						JOINT lHand
						{
							OFFSET 8.486692 0.000000 0.000000
							CHANNELS 3 Zrotation Yrotation Xrotation 
							End Site
							{
								OFFSET 4.106464 0.000000 0.000000
							}
						}
					}
				}
			}
			JOINT rCollar
			{
				OFFSET -3.558935 6.707223 -0.821293
				CHANNELS 3 Yrotation Zrotation Xrotation 
				JOINT rShldr
				{
					OFFSET -3.148289 0.000000 0.000000
					CHANNELS 3 Zrotation Yrotation Xrotation 
					JOINT rForeArm
					{
						OFFSET -10.266159 0.000000 0.000000
						CHANNELS 3 Yrotation Zrotation Xrotation 
						JOINT rHand
						{
							OFFSET -8.349810 0.000000 0.000000
							CHANNELS 3 Zrotation Yrotation Xrotation 
							End Site
							{
								OFFSET -4.106464 0.000000 0.000000
							}
						}
					}
				}
			}
		}
	}
	JOINT lThigh
	{
		OFFSET 5.338403 -1.642589 1.368821
		CHANNELS 3 Xrotation Zrotation Yrotation 
		JOINT lShin
		{
			OFFSET -2.053232 -20.121670 0.000000
			CHANNELS 3 Xrotation Zrotation Yrotation 
			JOINT lFoot
			{
				OFFSET 0.000000 -19.300380 -1.231939
				CHANNELS 3 Xrotation Yrotation Zrotation 
				End Site
				{
					OFFSET 0.000000 -2.463878 4.653993
				}
			}
		}
	}
	JOINT rThigh
	{
		OFFSET -5.338403 -1.642589 1.368821
		CHANNELS 3 Xrotation Zrotation Yrotation 
		JOINT rShin
		{
			OFFSET 2.053232 -20.121670 0.000000
			CHANNELS 3 Xrotation Zrotation Yrotation 
			JOINT rFoot
			{
				OFFSET 0.000000 -19.300380 -1.231939
				CHANNELS 3 Xrotation Yrotation Zrotation 
				End Site
				{
					OFFSET 0.000000 -2.463878 4.653993
				}
			}
		}
	}
}
MOTION
Frames: 11
Frame Time: 0.049897
0.000000 43.528500 0.000000 0.000000 0.000000 0.000000 0.000000 0.000000 0.000000 0.000000 0.000000 0.000000 0.000000 0.000000 0.000000 0.000000 0.000000 0.000000 0.000000 0.000000 0.000000 0.000000 0.000000 0.000000 0.000000 0.000000 0.000000 0.000000 0.000000 0.000000 0.000000 0.000000 0.000000 0.000000 0.000000 0.000000 0.000000 0.000000 0.000000 0.000000 0.000000 0.000000 0.000000 0.000000 0.000000 0.000000 0.000000 0.000000 0.000000 0.000000 0.000000 0.000000 0.000000 0.000000 0.000000 0.000000 0.000000 0.000000 0.000000 0.000000 
0.000000 7.522690 0.000000 -107.044266 0.433090 -1.982836 22.496990 -2.852024 -1.143346 12.327592 0.540641 -4.140670 6.340394 1.208614 -0.162484 -5.426454 -0.679295 -2.178888 -23.300150 23.063793 13.464258 -74.310051 -24.004385 72.770912 -35.231415 72.397964 -33.873783 -10.547314 -34.537514 -66.334724 23.258898 -23.104841 13.478881 74.305405 23.983145 72.825066 35.237053 -72.503029 -33.838799 10.589825 34.534382 -66.404129 -14.397197 -0.360581 -9.456161 87.712578 -0.634395 -0.679880 30.422144 -5.275944 -2.913287 -14.397492 0.356688 9.453128 87.712517 0.634297 0.674935 30.422291 5.271649 2.910818 
0.000000 7.522690 0.000000 -107.044266 0.433090 -1.982836 22.496990 -2.852024 -1.143346 12.327592 0.540641 -4.140670 6.384293 1.080127 -0.151993 -5.426454 -0.679295 -2.178888 -23.300150 23.063793 13.464258 -74.152008 -24.216463 72.392143 -35.483963 71.724831 -33.509304 -10.561473 -34.375046 -65.826172 23.258898 -23.104841 13.478881 74.442245 23.968899 72.383995 36.013157 -71.857582 -32.737793 10.589826 34.534386 -66.404129 -14.397197 -0.360581 -9.456161 87.712578 -0.634395 -0.679880 30.422144 -5.275944 -2.913287 -14.397492 0.356688 9.453128 87.712517 0.634297 0.674935 30.422291 5.271649 2.910818 
0.000000 7.522690 0.000000 -107.044266 0.433090 -1.982836 22.496990 -2.852024 -1.143346 12.327593 0.540641 -4.140670 6.428179 0.951596 -0.141598 -5.426455 -0.679295 -2.178888 -23.300150 23.063793 13.464258 -73.991974 -24.427832 72.011650 -35.715462 71.048752 -33.165245 -10.573885 -34.212158 -65.317642 23.258900 -23.104843 13.478882 74.579453 23.955587 71.942085 36.728020 -71.204651 -31.695824 10.589825 34.534382 -66.404129 -14.397197 -0.360581 -9.456162 87.712578 -0.634395 -0.679880 30.422144 -5.275944 -2.913287 -14.397492 0.356688 9.453128 87.712517 0.634297 0.674935 30.422291 5.271650 2.910818 
0.000000 7.522690 0.000000 -107.044266 0.433090 -1.982836 22.496990 -2.852024 -1.143346 12.327592 0.540641 -4.140670 6.472052 0.823022 -0.131300 -5.426454 -0.679295 -2.178888 -23.300150 23.063793 13.464258 -73.829941 -24.638464 71.629417 -35.927917 70.369843 -32.839600 -10.584551 -34.048862 -64.809105 23.258898 -23.104841 13.478881 74.717026 23.943228 71.499359 37.386936 -70.544762 -30.707691 10.589826 34.534386 -66.404129 -14.397197 -0.360581 -9.456161 87.712578 -0.634395 -0.679880 30.422148 -5.275945 -2.913288 -14.397492 0.356688 9.453128 87.712517 0.634297 0.674935 30.422291 5.271649 2.910818 
0.000000 7.522690 0.000000 -107.044273 0.433090 -1.982837 22.496992 -2.852025 -1.143346 12.327592 0.540641 -4.140670 6.515913 0.694406 -0.121097 -5.426454 -0.679295 -2.178888 -23.300150 23.063795 13.464258 -73.665894 -24.848351 71.245453 -36.123089 69.688164 -32.530624 -10.593468 -33.885170 -64.300583 23.258898 -23.104841 13.478882 74.854919 23.931816 71.055801 37.994507 -69.878227 -29.768669 10.589826 34.534386 -66.404144 -14.397197 -0.360581 -9.456161 87.712578 -0.634395 -0.679880 30.422148 -5.275945 -2.913288 -14.397492 0.356688 9.453128 87.712517 0.634297 0.674935 30.422291 5.271649 2.910818 
0.000000 7.522690 0.000000 -107.044273 0.433089 -1.982836 22.496994 -2.852024 -1.143346 12.327593 0.540641 -4.140670 6.559761 0.565748 -0.110990 -5.426455 -0.679295 -2.178888 -23.300150 23.063795 13.464260 -73.499840 -25.057459 70.859734 -36.302517 69.003777 -32.236725 -10.600631 -33.721104 -63.792084 23.258898 -23.104841 13.478882 74.993179 23.921364 70.611481 38.554970 -69.205475 -28.874592 10.589825 34.534389 -66.404144 -14.397197 -0.360581 -9.456161 87.712578 -0.634395 -0.679880 30.422144 -5.275945 -2.913287 -14.397492 0.356688 9.453128 87.712517 0.634297 0.674935 30.422291 5.271649 2.910818 
0.000000 7.522690 0.000000 -107.044266 0.433089 -1.982836 22.496988 -2.852024 -1.143346 12.327592 0.540641 -4.140670 6.603599 0.437048 -0.100979 -5.426454 -0.679295 -2.178888 -23.300150 23.063793 13.464257 -73.331757 -25.265778 70.472267 -36.467564 68.316772 -31.956573 -10.606036 -33.556675 -63.283623 23.258896 -23.104841 13.478881 75.131737 23.911871 70.166351 39.072090 -68.526825 -28.021683 10.589825 34.534382 -66.404129 -14.397197 -0.360581 -9.456161 87.712563 -0.634395 -0.679880 30.422144 -5.275944 -2.913287 -14.397491 0.356688 9.453127 87.712509 0.634297 0.674935 30.422291 5.271649 2.910818 
0.000000 7.522690 0.000000 -107.044258 0.433089 -1.982836 22.496988 -2.852024 -1.143346 12.327591 0.540640 -4.140670 6.647424 0.308307 -0.091065 -5.426454 -0.679295 -2.178887 -23.300150 23.063795 13.464257 -73.161659 -25.473280 70.083054 -36.619453 67.627235 -31.688946 -10.609694 -33.391914 -62.775219 23.258898 -23.104839 13.478881 75.270607 23.903357 69.720482 39.549236 -67.842529 -27.206469 10.589825 34.534382 -66.404129 -14.397197 -0.360581 -9.456161 87.712563 -0.634395 -0.679880 30.422140 -5.275944 -2.913287 -14.397492 0.356688 9.453128 87.712509 0.634297 0.674935 30.422285 5.271648 2.910818 
0.000000 7.522690 0.000000 -107.044258 0.433090 -1.982836 22.496990 -2.852024 -1.143346 12.327592 0.540641 -4.140670 6.691237 0.179525 -0.081246 -5.426454 -0.679295 -2.178888 -23.300150 23.063793 13.464258 -72.989510 -25.679943 69.692055 -36.759247 66.935196 -31.432764 -10.611591 -33.226841 -62.266888 23.258898 -23.104839 13.478881 75.409767 23.895815 69.273842 39.989471 -67.152908 -26.425943 10.589824 34.534382 -66.404129 -14.397197 -0.360581 -9.456161 87.712578 -0.634395 -0.679880 30.422144 -5.275944 -2.913287 -14.397491 0.356688 9.453127 87.712517 0.634297 0.674935 30.422291 5.271649 2.910818 
0.000000 7.522690 0.000000 -107.044266 0.433090 -1.982836 22.496990 -2.852024 -1.143346 12.327592 0.540641 -4.140670 6.735038 0.050704 -0.071524 -5.426454 -0.679295 -2.178888 -23.300150 23.063793 13.464258 -72.815346 -25.885756 69.299316 -36.887890 66.240730 -31.187061 -10.611746 -33.061470 -61.758614 23.258898 -23.104841 13.478881 75.549210 23.889254 68.826462 40.395557 -66.458199 -25.677299 10.589825 34.534382 -66.404129 -14.397197 -0.360581 -9.456161 87.712578 -0.634395 -0.679880 30.422144 -5.275944 -2.913287 -14.397492 0.356688 9.453128 87.712517 0.634297 0.674935 30.422291 5.271649 2.910817 
